<?xml version="1.0" ?><svg style="enable-background:new 0 0 70 70;" version="1.1" viewBox="0 0 70 70" xml:space="preserve" xmlns="http://www.w3.org/2000/svg" xmlns:xlink="http://www.w3.org/1999/xlink"><style type="text/css">
	.st0{fill:#E5E5E5;}
	.st1{fill:#231F20;}
	.st2{fill:#8CE014;}
	.st3{fill:#E0C214;}
	.st4{fill:#E2134E;}
	.st5{fill:#FFFFFF;}
</style><g id="Warstwa_2"><rect class="st0" height="70" id="XMLID_5_" width="70"/></g><g id="Warstwa_1"><rect class="st1" height="7" id="XMLID_1_" width="70"/><rect class="st1" height="3.5" id="XMLID_6_" width="70" y="66.5"/><path class="st2" d="M5.5,5L5.5,5C4.7,5,4,4.3,4,3.5v0C4,2.7,4.7,2,5.5,2h0C6.3,2,7,2.7,7,3.5v0C7,4.3,6.3,5,5.5,5z" id="XMLID_2_"/><path class="st3" d="M12.5,5L12.5,5C11.7,5,11,4.3,11,3.5v0C11,2.7,11.7,2,12.5,2h0C13.3,2,14,2.7,14,3.5v0   C14,4.3,13.3,5,12.5,5z" id="XMLID_3_"/><path class="st4" d="M19.5,5L19.5,5C18.7,5,18,4.3,18,3.5v0C18,2.7,18.7,2,19.5,2h0C20.3,2,21,2.7,21,3.5v0   C21,4.3,20.3,5,19.5,5z" id="XMLID_4_"/></g><g id="Warstwa_3"><rect class="st5" height="59.5" id="XMLID_7_" width="58" x="6" y="7"/></g><g id="Warstwa_4"><circle class="st4" cx="35" cy="35" id="XMLID_8_" r="20"/><g id="XMLID_11_"><rect class="st0" height="5" id="XMLID_9_" transform="matrix(0.7071 0.7071 -0.7071 0.7071 35 -14.4975)" width="20" x="25" y="32.5"/><rect class="st0" height="5" id="XMLID_10_" transform="matrix(-0.7071 0.7071 -0.7071 -0.7071 84.4975 35)" width="20" x="25" y="32.5"/></g></g></svg>